M48
;Layer_Color=9474304
;FILE_FORMAT=4:4
METRIC,LZ
;TYPE=PLATED
T1F00S00C0.2540
T2F00S00C1.0000
%
T01
X0002921Y000762
X0002794Y001397
X0005715Y0011938
X0008048Y0012112
X0011545Y0012319
X00120408Y0006858
X00143831
X0014605Y0005461
X0014545Y00035715
X0015113Y0011938
X0014545Y0018415
X001397Y0022746
X0010287Y0023114
X0010668Y0023749
X0009852Y0024384
X0009144Y0023876
X0007874Y002413
X0007239Y0024511
X0006604Y0024892
X0008563Y00248627
X0010541Y0026162
X00117578Y0026035
X0011811Y0027432
X00101842Y0028194
X0009779Y00287861
X0006731Y0027462
X0007011Y0031268
X0006604Y00326861
X0006096Y0034798
Y0038227
X0008255Y0037592
X0010033Y0039751
X0009525Y0041529
X0005334Y0042164
X0004064Y0032512
X0003429Y003048
X0004572Y00298887
X0009398Y0033962
X001016Y0033312
X0013335Y0037846
X00104233Y0019304
X0008636Y001651
X00069608Y0017018
X00061557Y00176981
X0005334Y0018288
X0004572Y00188825
T02
X0001651Y0004318
Y0006858
Y0009398
Y0011938
X00069608Y0004572
X00095008
X00120408
Y0002032
X00095008
X00069608
X0016891Y0004318
Y0006858
Y0009398
Y0011938
Y0014478
Y0017018
Y0019558
Y0022098
Y0024638
Y0027178
Y0029718
Y0032258
Y0034798
Y0037338
Y0039878
X0001651
Y0037338
Y0034798
Y0032258
Y0029718
Y0027178
Y0024638
Y0022098
Y0019558
Y0017018
Y0014478
M30
