%TF.GenerationSoftware,Altium Limited,Altium Designer,19.0.10 (269)*%
G04 Layer_Color=32896*
%FSLAX45Y45*%
%MOMM*%
%TF.FileFunction,Legend,Bot*%
%TF.Part,Single*%
G01*
G75*
%TA.AperFunction,NonConductor*%
%ADD32C,0.20000*%
%ADD33C,0.25400*%
D32*
X954104Y2518695D02*
G03*
X895304Y2518695I-29400J0D01*
G01*
X954104D02*
X1166004D01*
X687404D02*
Y3428697D01*
X985403D01*
X1166004Y2926796D02*
Y3020597D01*
Y2518695D02*
Y2926796D01*
X985403Y3428697D02*
X1166003Y3428698D01*
X1166004Y3020597D02*
Y3191222D01*
X1166003Y3428698D02*
X1166004Y3191222D01*
X687404Y2518695D02*
X895304D01*
D33*
X788001Y2576596D02*
G03*
X788001Y2576596I-28398J0D01*
G01*
X966800Y1597200D02*
X1546800D01*
Y1847200D01*
X966800D02*
X1546800D01*
X966800Y1597200D02*
Y1847200D01*
X1156800Y1597200D02*
Y1847200D01*
X373400Y2241700D02*
X773400D01*
X373400Y1941700D02*
Y2241700D01*
Y1941700D02*
X773400D01*
Y2241700D01*
X1282700Y765800D02*
X1485900D01*
X1282700D02*
Y1134100D01*
X1485900D01*
Y765800D02*
Y1134100D01*
X333900Y627400D02*
Y1547400D01*
X1093900D01*
Y627400D02*
Y1547400D01*
X333900Y627400D02*
X1093900D01*
X1458300Y3543300D02*
Y3746500D01*
X1090000Y3543300D02*
X1458300Y3543300D01*
X1090000Y3746500D02*
X1090000Y3543300D01*
X1090000Y3746500D02*
X1458300D01*
X1130300Y3871400D02*
Y4239700D01*
Y3871400D02*
X1333500D01*
Y4239700D01*
X1130300D02*
X1333500D01*
X1088400Y1954400D02*
Y2254400D01*
X1488400D01*
Y1954400D02*
Y2254400D01*
X1088400Y1954400D02*
X1488400D01*
X1380500Y4194800D02*
X1540500D01*
Y3874800D02*
Y4194800D01*
X1380500Y3874800D02*
X1540500D01*
X1380500D02*
Y4194800D01*
X453400D02*
X613400D01*
Y3874800D02*
Y4194800D01*
X453400Y3874800D02*
X613400D01*
X453400D02*
Y4194800D01*
X424300Y3746500D02*
X792600D01*
X424300Y3543300D02*
Y3746500D01*
Y3543300D02*
X792600D01*
Y3746500D01*
X876300Y3863000D02*
Y4231300D01*
X673100D02*
X876300D01*
X673100Y3863000D02*
Y4231300D01*
Y3863000D02*
X876300D01*
X848504Y2546128D02*
Y2629435D01*
X865165Y2646096D01*
X898487D01*
X915149Y2629435D01*
Y2546128D01*
X1015116Y2646096D02*
X948471D01*
X1015116Y2579451D01*
Y2562790D01*
X998455Y2546128D01*
X965133D01*
X948471Y2562790D01*
X1393855Y1242806D02*
X1410516Y1259468D01*
X1443839D01*
X1460500Y1242806D01*
Y1176161D01*
X1443839Y1159500D01*
X1410516D01*
X1393855Y1176161D01*
X1360532Y1159500D02*
X1327210D01*
X1343871D01*
Y1259468D01*
X1360532Y1242806D01*
X571500Y1674768D02*
Y1608123D01*
X538177Y1574800D01*
X504855Y1608123D01*
Y1674768D01*
X471532Y1574800D02*
Y1674768D01*
X421548D01*
X404887Y1658106D01*
Y1624784D01*
X421548Y1608123D01*
X471532D01*
X438210D02*
X404887Y1574800D01*
X371564D02*
X338242D01*
X354903D01*
Y1674768D01*
X371564Y1658106D01*
X716180Y2265700D02*
Y2365668D01*
X666196D01*
X649535Y2349006D01*
Y2315684D01*
X666196Y2299023D01*
X716180D01*
X682857D02*
X649535Y2265700D01*
X549567D02*
X616212D01*
X549567Y2332345D01*
Y2349006D01*
X566228Y2365668D01*
X599551D01*
X616212Y2349006D01*
X1058744Y2151400D02*
X958776D01*
Y2101416D01*
X975437Y2084755D01*
X1008760D01*
X1025421Y2101416D01*
Y2151400D01*
Y2118078D02*
X1058744Y2084755D01*
Y2051432D02*
Y2018110D01*
Y2034771D01*
X958776D01*
X975437Y2051432D01*
X831066Y1816100D02*
X931034D01*
Y1766116D01*
X914373Y1749455D01*
X847728D01*
X831066Y1766116D01*
Y1816100D01*
X931034Y1666148D02*
X831066D01*
X881050Y1716132D01*
Y1649487D01*
X335794Y4048155D02*
X319132Y4064816D01*
Y4098139D01*
X335794Y4114800D01*
X402439D01*
X419100Y4098139D01*
Y4064816D01*
X402439Y4048155D01*
X319132Y4014832D02*
Y3948187D01*
X335794D01*
X402439Y4014832D01*
X419100D01*
X924811Y3936055D02*
X908150Y3952716D01*
Y3986039D01*
X924811Y4002700D01*
X991456D01*
X1008117Y3986039D01*
Y3952716D01*
X991456Y3936055D01*
X908150Y3836087D02*
X924811Y3869410D01*
X958133Y3902732D01*
X991456D01*
X1008117Y3886071D01*
Y3852748D01*
X991456Y3836087D01*
X974795D01*
X958133Y3852748D01*
Y3902732D01*
X958094Y3667155D02*
X941432Y3683816D01*
Y3717139D01*
X958094Y3733800D01*
X1024739D01*
X1041400Y3717139D01*
Y3683816D01*
X1024739Y3667155D01*
X941432Y3567187D02*
Y3633832D01*
X991416D01*
X974755Y3600510D01*
Y3583848D01*
X991416Y3567187D01*
X1024739D01*
X1041400Y3583848D01*
Y3617171D01*
X1024739Y3633832D01*
X1099306Y4029145D02*
X1115968Y4012484D01*
Y3979161D01*
X1099306Y3962500D01*
X1032661D01*
X1016000Y3979161D01*
Y4012484D01*
X1032661Y4029145D01*
X1016000Y4112452D02*
X1115968D01*
X1065984Y4062468D01*
Y4129113D01*
X1340606Y4003645D02*
X1357268Y3986984D01*
Y3953661D01*
X1340606Y3937000D01*
X1273961D01*
X1257300Y3953661D01*
Y3986984D01*
X1273961Y4003645D01*
X1340606Y4036968D02*
X1357268Y4053629D01*
Y4086952D01*
X1340606Y4103613D01*
X1323945D01*
X1307284Y4086952D01*
Y4070290D01*
Y4086952D01*
X1290623Y4103613D01*
X1273961D01*
X1257300Y4086952D01*
Y4053629D01*
X1273961Y4036968D01*
X380607Y3635345D02*
X397268Y3618684D01*
Y3585361D01*
X380607Y3568700D01*
X313962D01*
X297300Y3585361D01*
Y3618684D01*
X313962Y3635345D01*
X297300Y3735313D02*
Y3668668D01*
X363945Y3735313D01*
X380607D01*
X397268Y3718652D01*
Y3685329D01*
X380607Y3668668D01*
%TF.MD5,6b3858f5cb97a53958d9016ab8355fbd*%
M02*
