%TF.GenerationSoftware,Altium Limited,Altium Designer,19.0.10 (269)*%
G04 Layer_Physical_Order=1*
G04 Layer_Color=255*
%FSLAX45Y45*%
%MOMM*%
%TF.FileFunction,Copper,L1,Top,Signal*%
%TF.Part,Single*%
G01*
G75*
%TA.AperFunction,SMDPad,CuDef*%
G04:AMPARAMS|DCode=10|XSize=0.55mm|YSize=1.5mm|CornerRadius=0mm|HoleSize=0mm|Usage=FLASHONLY|Rotation=225.000|XOffset=0mm|YOffset=0mm|HoleType=Round|Shape=Round|*
%AMOVALD10*
21,1,0.95000,0.55000,0.00000,0.00000,315.0*
1,1,0.55000,-0.33588,0.33588*
1,1,0.55000,0.33588,-0.33588*
%
%ADD10OVALD10*%

G04:AMPARAMS|DCode=11|XSize=0.55mm|YSize=1.5mm|CornerRadius=0mm|HoleSize=0mm|Usage=FLASHONLY|Rotation=135.000|XOffset=0mm|YOffset=0mm|HoleType=Round|Shape=Round|*
%AMOVALD11*
21,1,0.95000,0.55000,0.00000,0.00000,225.0*
1,1,0.55000,0.33588,0.33588*
1,1,0.55000,-0.33588,-0.33588*
%
%ADD11OVALD11*%

G04:AMPARAMS|DCode=12|XSize=0.5mm|YSize=1.45mm|CornerRadius=0mm|HoleSize=0mm|Usage=FLASHONLY|Rotation=45.000|XOffset=0mm|YOffset=0mm|HoleType=Round|Shape=Rectangle|*
%AMROTATEDRECTD12*
4,1,4,0.33588,-0.68943,-0.68943,0.33588,-0.33588,0.68943,0.68943,-0.33588,0.33588,-0.68943,0.0*
%
%ADD12ROTATEDRECTD12*%

%ADD13R,0.80000X2.00000*%
%ADD14R,1.45000X0.80000*%
%TA.AperFunction,ConnectorPad*%
%ADD15R,2.05000X4.00000*%
%ADD16R,2.05000X3.50000*%
%ADD17R,0.50000X2.25000*%
%TA.AperFunction,Conductor*%
%ADD18C,0.25400*%
%TA.AperFunction,ComponentPad*%
%ADD19C,1.50000*%
%TA.AperFunction,SMDPad,CuDef*%
%ADD20C,0.90000*%
%TA.AperFunction,ViaPad*%
%ADD21C,0.40000*%
D10*
X1042330Y2104990D02*
D03*
X1098899Y2161559D02*
D03*
X1155468Y2218127D02*
D03*
X1212036Y2274695D02*
D03*
X1268605Y2331264D02*
D03*
X1325173Y2387833D02*
D03*
X1381741Y2444401D02*
D03*
X1438310Y2500970D02*
D03*
X837270Y3102011D02*
D03*
X780701Y3045442D02*
D03*
X724132Y2988873D02*
D03*
X667564Y2932305D02*
D03*
X610995Y2875736D02*
D03*
X554426Y2819168D02*
D03*
X497858Y2762599D02*
D03*
X441290Y2706031D02*
D03*
D11*
X1438310D02*
D03*
X1381742Y2762599D02*
D03*
X1325174Y2819168D02*
D03*
X1268605Y2875736D02*
D03*
X1212036Y2932305D02*
D03*
X1155468Y2988874D02*
D03*
X1098899Y3045442D02*
D03*
X1042330Y3102011D02*
D03*
X441290Y2500970D02*
D03*
X497859Y2444401D02*
D03*
X554427Y2387833D02*
D03*
X610995Y2331264D02*
D03*
X667564Y2274696D02*
D03*
X724133Y2218127D02*
D03*
X780701Y2161559D02*
D03*
X837270Y2104990D02*
D03*
D12*
X1244600Y1803400D02*
D03*
X1329453Y1888253D02*
D03*
X1414306Y1973106D02*
D03*
D13*
X480182Y1483184D02*
D03*
X965200Y1473200D02*
D03*
D14*
X1092200Y1040900D02*
D03*
Y850900D02*
D03*
X1384300D02*
D03*
Y1040900D02*
D03*
X800100D02*
D03*
Y850900D02*
D03*
X495300Y1050899D02*
D03*
Y850901D02*
D03*
D15*
X444500Y3987800D02*
D03*
X1424500D02*
D03*
D16*
X444500Y3562800D02*
D03*
X1424500Y3552800D02*
D03*
D17*
X1094500Y3562800D02*
D03*
X1014500D02*
D03*
X774500D02*
D03*
X854500D02*
D03*
X934500D02*
D03*
D18*
X780701Y3041999D02*
X850900Y2971800D01*
X780701Y3041999D02*
Y3045442D01*
X1003079Y3062759D02*
X1268605Y3328285D01*
X850900Y2923996D02*
Y2971800D01*
X673100Y2746196D02*
X850900Y2923996D01*
X856300Y2486266D02*
Y2574036D01*
X1076518Y2794254D01*
Y2878074D01*
X999711Y2954881D02*
X1076518Y2878074D01*
X999711Y2954881D02*
Y3039027D01*
X1003079Y3042395D01*
Y3062759D01*
X837270Y3097014D02*
X914400Y3019884D01*
Y2895600D02*
Y3019884D01*
X660400Y2641600D02*
X914400Y2895600D01*
X723900Y2624607D02*
X977900Y2878607D01*
X723900Y2451100D02*
Y2624607D01*
X787400Y2578100D02*
X1018418Y2809118D01*
Y2819400D01*
X660400Y2489200D02*
Y2641600D01*
X787400Y2413000D02*
Y2578100D01*
X1676400Y1193800D02*
X1689100Y1181100D01*
X1266364Y2325495D02*
X1268605D01*
X1217976Y2373883D02*
X1266364Y2325495D01*
X1048134Y2692400D02*
X1117600D01*
X914400Y2558666D02*
X1048134Y2692400D01*
X914400Y2387600D02*
Y2558666D01*
X1175781Y2603500D02*
Y2634219D01*
X1117600Y2692400D02*
X1175781Y2634219D01*
X985200Y2547300D02*
X1054100Y2616200D01*
X985200Y2438400D02*
Y2547300D01*
X1175781Y2416078D02*
Y2603500D01*
Y2416078D02*
X1217976Y2373883D01*
X1332624Y2209800D02*
X1405607Y2282782D01*
X1317163Y2387833D02*
Y2393540D01*
X1181100Y2743200D02*
X1270000Y2654300D01*
Y2440703D02*
Y2654300D01*
Y2440703D02*
X1317163Y2393540D01*
X1331238Y480410D02*
X1454500Y357148D01*
X1331238Y480410D02*
Y558644D01*
X1576000Y661600D02*
Y805251D01*
X1460500Y546100D02*
X1576000Y661600D01*
X1402400Y522034D02*
X1492634Y431800D01*
X1638300D01*
X1651000Y444500D01*
X1402400Y522034D02*
Y570166D01*
X1438876Y604200D02*
X1507207Y672531D01*
X1436434Y604200D02*
X1438876D01*
X1402400Y570166D02*
X1436434Y604200D01*
X1663700Y431800D02*
X1676400Y419100D01*
X1204082Y685800D02*
X1331238Y558644D01*
X780734Y1153100D02*
X1020380D01*
X746700Y1187134D02*
X780734Y1153100D01*
X1020380D02*
X1092200Y1081281D01*
X801754Y1042554D02*
Y1081281D01*
X800100Y1040900D02*
X801754Y1042554D01*
X780734Y1102300D02*
X801754Y1081281D01*
X804982Y1341425D02*
Y1756293D01*
X746700Y1187134D02*
Y1283143D01*
X804982Y1341425D01*
X759692Y1102300D02*
X780734D01*
X1002100Y1231900D02*
X1154500D01*
X981400Y1211200D02*
X1002100Y1231900D01*
X695900Y1166092D02*
X759692Y1102300D01*
X695900Y1166092D02*
Y1405327D01*
X754182Y1463608D01*
X804800Y1211200D02*
X981400D01*
X754182Y1463608D02*
Y1725866D01*
X710235Y1769812D02*
X754182Y1725866D01*
X615566Y1769812D02*
X710235D01*
X863600Y1495884D02*
Y1651000D01*
X1663700Y431800D02*
X1689100D01*
X800100Y850900D02*
X832600D01*
X413946Y850901D02*
X495300D01*
X696082Y1496182D02*
Y1701800D01*
X997900Y2369500D02*
X1061400D01*
X952500Y2324100D02*
X997900Y2369500D01*
X716968Y2324100D02*
X952500D01*
X667564Y2274696D02*
X716968Y2324100D01*
X990600Y2273300D02*
X1028700Y2311400D01*
X787315Y2273300D02*
X990600D01*
X732143Y2218127D02*
X787315Y2273300D01*
X883149Y2219058D02*
X943143Y2159064D01*
X838200Y2219058D02*
X883149D01*
X780701Y2161559D02*
X838200Y2219058D01*
X1061400Y2369500D02*
X1066800Y2374900D01*
X1042330Y2104990D02*
X1049977Y2097343D01*
X1104900Y2042420D01*
X741450Y2122307D02*
X780701Y2161559D01*
X943143Y2111405D02*
Y2159064D01*
X1042330Y1930400D02*
Y2012218D01*
X943143Y2111405D02*
X1042330Y2012218D01*
X1086757Y1783443D02*
Y1873811D01*
Y1783443D02*
X1320800Y1549400D01*
X1104900Y1891954D02*
Y2042420D01*
X1086757Y1873811D02*
X1104900Y1891954D01*
X1647782Y1963401D02*
X1689100Y1922083D01*
X1137557Y1852769D02*
X1155700Y1870912D01*
X1137557Y1821206D02*
Y1852769D01*
Y1821206D02*
X1262406Y1696357D01*
X1206500Y1903988D02*
X1221503Y1918991D01*
X1206500Y1850153D02*
Y1903988D01*
Y1850153D02*
X1244600Y1812053D01*
X1221503Y2004297D02*
X1456407Y2239201D01*
X1221503Y1918991D02*
Y2004297D01*
X1456407Y2239201D02*
Y2361726D01*
X1262406Y1696357D02*
X1262406D01*
X1345863Y1612900D01*
X1092200Y1040900D02*
Y1081281D01*
X1231900Y889000D02*
Y1320800D01*
X1079500Y1473200D02*
X1231900Y1320800D01*
X965200Y1473200D02*
X1079500D01*
X751847Y1888253D02*
X1373779Y1266321D01*
Y1153786D02*
Y1266321D01*
Y1153786D02*
X1384300Y1143265D01*
Y1040900D02*
Y1143265D01*
X1151277Y2373883D02*
X1217976D01*
X1112848Y2335455D02*
X1151277Y2373883D01*
X1112848Y2281111D02*
Y2335455D01*
Y2281111D02*
X1116216Y2277743D01*
Y2257378D02*
Y2277743D01*
Y2257378D02*
X1155468Y2218127D01*
X571500Y1141080D02*
X605900Y1106681D01*
X571500Y1141080D02*
Y1193800D01*
X605900Y1068718D02*
X722118Y952500D01*
X605900Y1068718D02*
Y1106681D01*
X495300Y1295400D02*
X696082Y1496182D01*
X495300Y1050899D02*
Y1295400D01*
X724133Y2218127D02*
X732143D01*
X381000Y1988132D02*
X667564Y2274696D01*
X1674397Y2973803D02*
X1689100Y2959100D01*
X1366671Y2973803D02*
X1674397D01*
X1268605Y2875736D02*
X1366671Y2973803D01*
X1507207Y672531D02*
Y1092200D01*
X1384300Y739810D02*
X1438310Y685800D01*
X1397734Y1816100D02*
X1429100D01*
X1329453Y1884382D02*
X1397734Y1816100D01*
X1329453Y1884382D02*
Y1888253D01*
X1429100Y1816100D02*
X1454500Y1841500D01*
X1574800Y1890419D02*
X1647782Y1963401D01*
X1574800Y1716918D02*
Y1890419D01*
X1470782Y1612900D02*
X1574800Y1716918D01*
X1345863Y1612900D02*
X1470782D01*
X1689100Y1922083D02*
Y1955800D01*
X1155700Y1870912D02*
Y2098575D01*
X1098899Y2155376D02*
X1155700Y2098575D01*
X1098899Y2155376D02*
Y2161559D01*
X1320800Y1549400D02*
X1536700D01*
X1348100Y1447800D02*
X1689100D01*
X795510Y2000390D02*
X1348100Y1447800D01*
X795510Y2000390D02*
Y2055221D01*
X457200Y1888253D02*
X751847D01*
X738082Y1973860D02*
X1424579Y1287363D01*
X738082Y1973860D02*
Y2098575D01*
X1424579Y1174827D02*
Y1287363D01*
X1536700Y1549400D02*
X1689100Y1701800D01*
X837270Y3097014D02*
Y3102011D01*
X1511300Y1193800D02*
X1676400D01*
X1424579Y1174827D02*
X1507207Y1092200D01*
X1384300Y739810D02*
Y850900D01*
X1576000Y805251D02*
X1689100Y918351D01*
X1098899Y3045442D02*
X1368157Y3314700D01*
X1059648Y3006191D02*
X1098899Y3045442D01*
X1333500Y114300D02*
Y361498D01*
X1237798Y457200D02*
X1333500Y361498D01*
X1204082Y457200D02*
X1237798D01*
X1295400Y76200D02*
X1333500Y114300D01*
X413946Y76200D02*
X1295400D01*
X355600Y134546D02*
X413946Y76200D01*
X355600Y134546D02*
Y780666D01*
X196466Y939800D02*
X355600Y780666D01*
X165100Y939800D02*
X196466D01*
X292100Y558800D02*
Y762000D01*
X184148Y1080700D02*
X413946Y850901D01*
X165100Y431800D02*
X292100Y558800D01*
X365584Y1483184D02*
X480182D01*
X279400Y1397000D02*
X365584Y1483184D01*
X950082Y457200D02*
Y891418D01*
X889000Y952500D02*
X950082Y891418D01*
X722118Y952500D02*
X889000D01*
X533400Y1828800D02*
X732475D01*
X381000Y1790700D02*
Y1988132D01*
X898984Y1460500D02*
X952500D01*
X863600Y1495884D02*
X898984Y1460500D01*
X952500D02*
X965200Y1473200D01*
X1193800Y850900D02*
X1384300D01*
X1092200D02*
X1193800D01*
X1231900Y889000D01*
X738082Y2098575D02*
X741450Y2101943D01*
Y2122307D01*
X795510Y2055221D02*
X837270Y2096980D01*
Y2104990D01*
X1689100Y918351D02*
Y927100D01*
X480182Y1483184D02*
Y1691518D01*
X381000Y1790700D02*
X480182Y1691518D01*
X457200Y2988873D02*
X497858D01*
X610995Y2867727D02*
Y2875736D01*
X497858Y2988873D02*
X610995Y2875736D01*
X342900Y2989399D02*
X432749Y2899551D01*
X278200Y2982257D02*
X497858Y2762599D01*
X732475Y1828800D02*
X804982Y1756293D01*
X444500Y3987800D02*
Y4191000D01*
X469900Y4216400D01*
X533400D01*
X609600Y3479800D02*
Y3822700D01*
X444500Y3987800D02*
X698500D01*
X825500Y3860800D01*
Y3759200D02*
Y3860800D01*
X292100Y3383818D02*
X349211Y3326708D01*
X684466D02*
X771082Y3240092D01*
X349211Y3326708D02*
X684466D01*
X771082Y3176208D02*
Y3240092D01*
X701100Y3126800D02*
Y3127566D01*
Y3125921D02*
Y3126800D01*
X660400Y3168266D02*
X701100Y3127566D01*
X660400Y3168266D02*
Y3268608D01*
X771082Y3176208D02*
X837270Y3110020D01*
Y3102011D02*
Y3110020D01*
X701100Y3125921D02*
X780701Y3046320D01*
X469900Y2899551D02*
X550283Y2819168D01*
X432749Y2899551D02*
X469900D01*
X550283Y2819168D02*
X554426D01*
X342900Y2989399D02*
Y3048000D01*
X165100Y3213100D02*
X278200Y3100000D01*
Y2982257D02*
Y3100000D01*
X1576000Y2416952D02*
Y2568341D01*
X1438310Y2706031D02*
X1576000Y2568341D01*
X1424500Y3552800D02*
Y3875600D01*
X1333500Y3784600D02*
X1424500Y3875600D01*
Y3987800D01*
X1320800Y4267200D02*
X1524000D01*
X1565100Y4226100D01*
Y4111800D02*
Y4226100D01*
Y4111800D02*
X1689100Y3987800D01*
X1268605Y4215005D02*
X1320800Y4267200D01*
X1268605Y3328285D02*
Y4215005D01*
X779700Y3713400D02*
X825500Y3759200D01*
X779700Y3568000D02*
Y3713400D01*
X774500Y3562800D02*
X779700Y3568000D01*
X184148Y1080700D02*
Y1174752D01*
X165100Y1193800D02*
X184148Y1174752D01*
X809182Y787400D02*
Y841818D01*
Y410352D02*
Y787400D01*
X771082Y749300D02*
X809182Y787400D01*
X520700Y749300D02*
X771082D01*
X482600Y787400D02*
X520700Y749300D01*
X482600Y787400D02*
Y838202D01*
X495300Y850901D01*
X800100Y850900D02*
X809182Y841818D01*
X715129Y316300D02*
X809182Y410352D01*
X715129Y222248D02*
Y316300D01*
X696082Y203200D02*
X715129Y222248D01*
X1350495Y2040405D02*
Y2061447D01*
X1507207Y2218159D01*
Y2424064D01*
X1438310Y2492960D02*
X1507207Y2424064D01*
X1350495Y2040405D02*
X1414306Y1976594D01*
Y1973106D02*
Y1976594D01*
X1381741Y2436391D02*
Y2444401D01*
X1244600Y1803400D02*
Y1812053D01*
X1381741Y2436391D02*
X1456407Y2361726D01*
X1405607Y2282782D02*
Y2307399D01*
X1281688Y2209800D02*
X1332624D01*
X1216793Y2274695D02*
X1281688Y2209800D01*
X1212036Y2274695D02*
X1216793D01*
X1325173Y2387833D02*
X1405607Y2307399D01*
X409193Y3248407D02*
X464599D01*
X406400Y3251200D02*
X409193Y3248407D01*
X390059Y3185375D02*
X414494D01*
X241300Y3334134D02*
X390059Y3185375D01*
X241300Y3334134D02*
Y3396053D01*
X170253Y3467100D02*
X241300Y3396053D01*
X165100Y3467100D02*
X170253D01*
X414494Y3185375D02*
X667564Y2932305D01*
X464599Y3248407D02*
X724132Y2988873D01*
X1003300Y3812793D02*
Y3975100D01*
Y3812793D02*
X1094500Y3721594D01*
Y3562800D02*
Y3721594D01*
X1015250Y3331947D02*
X1016000Y3331197D01*
X1015250Y3331947D02*
Y3562050D01*
X1014500Y3562800D02*
X1015250Y3562050D01*
X937150Y3398847D02*
X939800Y3396197D01*
X937150Y3398847D02*
Y3560150D01*
X934500Y3562800D02*
X937150Y3560150D01*
X780701Y3045442D02*
Y3046320D01*
X1676400Y419100D02*
X1689100Y431800D01*
X1244600Y1803400D02*
X1278188Y1769812D01*
X1576000Y2670952D02*
X1670052Y2576900D01*
Y2482848D02*
Y2576900D01*
Y2482848D02*
X1689100Y2463800D01*
X1576000Y2416952D02*
X1670052Y2322900D01*
X1576000Y2670952D02*
Y2780100D01*
X1670052Y2228848D02*
Y2322900D01*
Y2228848D02*
X1689100Y2209800D01*
X1438310Y2492960D02*
Y2500970D01*
X540331Y2260600D02*
X610995Y2331264D01*
X436183Y2260600D02*
X540331D01*
X165100Y1989517D02*
X436183Y2260600D01*
X477994Y2311400D02*
X554427Y2387833D01*
X279400Y2311400D02*
X477994D01*
X165100Y2451100D02*
X198513D01*
X261780Y2387833D02*
X433280D01*
X198513Y2451100D02*
X261780Y2387833D01*
X433280D02*
X489849Y2444401D01*
X165100Y2197100D02*
X279400Y2311400D01*
X165100Y1955800D02*
Y1989517D01*
Y1943100D02*
Y1955800D01*
X177800Y3479800D02*
X201641Y3455959D01*
X1317163Y2387833D02*
X1325173D01*
X1380718Y2006693D02*
X1414306Y1973106D01*
X1098899Y2161559D02*
X1106909D01*
X165100Y673100D02*
X184148Y654052D01*
X292100Y3383818D02*
Y3848100D01*
X1381741Y1043458D02*
X1384300Y1040900D01*
X165100Y3975100D02*
X292100Y3848100D01*
X1524000Y2832100D02*
X1576000Y2780100D01*
X1451242Y2832100D02*
X1524000D01*
X1381742Y2762599D02*
X1451242Y2832100D01*
X1562100Y2908300D02*
X1689100Y2781300D01*
Y2705100D02*
Y2781300D01*
X1414306Y2908300D02*
X1562100D01*
X1325174Y2819168D02*
X1414306Y2908300D01*
X1492831Y3213100D02*
X1689100D01*
X1212036Y2932305D02*
X1492831Y3213100D01*
X1689100Y3390900D02*
Y3467100D01*
X1562100Y3263900D02*
X1689100Y3390900D01*
X1430494Y3263900D02*
X1562100D01*
X1155468Y2988874D02*
X1430494Y3263900D01*
X1536700Y3314700D02*
X1576000Y3354000D01*
Y3608000D01*
X1689100Y3721100D01*
X1368157Y3314700D02*
X1536700D01*
X489849Y2444401D02*
X497859D01*
X165100Y2705100D02*
X254000Y2616200D01*
X326060D01*
X441290Y2500970D01*
X165100Y2959100D02*
X180211D01*
X433280Y2706031D01*
X441290D01*
X444500Y3562800D02*
Y3987800D01*
X1665259Y1157259D02*
X1689100Y1181100D01*
X1451100Y3594100D02*
Y3606800D01*
X1438400D02*
X1451100Y3594100D01*
D19*
X165100Y431800D02*
D03*
Y685800D02*
D03*
Y939800D02*
D03*
Y1193800D02*
D03*
Y1447800D02*
D03*
Y1701800D02*
D03*
Y1955800D02*
D03*
Y2209800D02*
D03*
Y2463800D02*
D03*
Y2717800D02*
D03*
Y2971800D02*
D03*
Y3225800D02*
D03*
Y3479800D02*
D03*
Y3733800D02*
D03*
Y3987800D02*
D03*
X1689100D02*
D03*
Y3733800D02*
D03*
Y3479800D02*
D03*
Y3225800D02*
D03*
Y2971800D02*
D03*
Y2717800D02*
D03*
Y2463800D02*
D03*
Y2209800D02*
D03*
Y1955800D02*
D03*
Y1701800D02*
D03*
Y1447800D02*
D03*
Y1193800D02*
D03*
Y939800D02*
D03*
Y685800D02*
D03*
Y431800D02*
D03*
X696082Y457200D02*
D03*
X950082D02*
D03*
X1204082D02*
D03*
X696082Y203200D02*
D03*
X950082D02*
D03*
X1204082D02*
D03*
D20*
X714500Y3802800D02*
D03*
X1154500D02*
D03*
D21*
X977900Y2878607D02*
D03*
X1018418Y2819400D02*
D03*
X673100Y2746196D02*
D03*
X1054100Y2616200D02*
D03*
X1175781Y2603500D02*
D03*
X1454500Y357148D02*
D03*
X1460500Y546100D02*
D03*
X1204082Y685800D02*
D03*
X804800Y1211200D02*
D03*
X863600Y1651000D02*
D03*
X856300Y2486266D02*
D03*
X787400Y2413000D02*
D03*
X914400Y2387600D02*
D03*
X985200Y2438400D02*
D03*
X615566Y1769812D02*
D03*
X696082Y1701800D02*
D03*
X1028700Y2311400D02*
D03*
X1181100Y2743200D02*
D03*
X1042330Y1930400D02*
D03*
X723900Y2451100D02*
D03*
X660400Y2489200D02*
D03*
X1154500Y1231900D02*
D03*
X571500Y1193800D02*
D03*
X1066800Y2374900D02*
D03*
X1438310Y685800D02*
D03*
X1454500Y1841500D02*
D03*
X1511300Y1193800D02*
D03*
X292100Y762000D02*
D03*
X279400Y1397000D02*
D03*
X533400Y1828800D02*
D03*
X457200Y1888253D02*
D03*
Y2988873D02*
D03*
X533400Y4216400D02*
D03*
X609600Y3479800D02*
D03*
Y3822700D02*
D03*
X660400Y3268608D02*
D03*
X701100Y3126800D02*
D03*
X342900Y3048000D02*
D03*
X1333500Y3784600D02*
D03*
X825500Y3759200D02*
D03*
X1397000Y2274600D02*
D03*
X406400Y3251200D02*
D03*
X1003300Y3975100D02*
D03*
X952500Y4152900D02*
D03*
X939800Y3396197D02*
D03*
X1016000Y3331197D02*
D03*
%TF.MD5,d4da284c08e6c5b4af3448b2714e1320*%
M02*
